<?xml version="1.0" encoding="utf-8"?>
<!-- Generator: Adobe Illustrator 16.0.0, SVG Export Plug-In . SVG Version: 6.00 Build 0)  -->
<!DOCTYPE svg PUBLIC "-//W3C//DTD SVG 1.1//EN" "http://www.w3.org/Graphics/SVG/1.1/DTD/svg11.dtd">
<svg version="1.1" id="Layer_1" xmlns="http://www.w3.org/2000/svg" xmlns:xlink="http://www.w3.org/1999/xlink" x="0px" y="0px"
	 width="347.86px" height="78.448px" viewBox="53.59 226.338 347.86 78.448" enable-background="new 53.59 226.338 347.86 78.448"
	 xml:space="preserve">
<g>
	<path fill="#A9A8A8" d="M54.986,258.021h4.561v-29.763h-4.561v-1.92h14.978c2.257,0,4.177,0.384,5.712,1.248
		c2.064,1.152,3.648,3.84,3.648,7.201c0,3.552-1.776,6.049-4.368,7.297v0.096c3.312,0.912,5.712,4.177,5.712,8.401
		c0,3.937-2.111,7.297-5.232,8.593c-1.487,0.624-3.215,0.768-5.041,0.768H54.986V258.021z M70.779,241.316
		c3.746,0,6.386-2.592,6.386-6.577c0-2.448-1.008-4.417-2.688-5.473c-1.151-0.72-2.688-1.008-4.512-1.008h-8.354v13.057
		L70.779,241.316L70.779,241.316z M70.396,258.021c1.199,0,2.783-0.096,4.031-0.625c2.496-1.008,4.081-3.504,4.081-6.72
		c0-4.561-3.12-7.441-7.44-7.441h-9.457v14.786H70.396z"/>
	<path fill="#A9A8A8" d="M86.331,258.069h3.84v-19.202c0-0.72-0.384-1.056-1.056-1.056h-3.504v-1.872h3.791
		c1.969,0,2.785,0.816,2.785,2.64v1.68c0,1.104-0.097,1.968-0.097,1.968h0.097c1.199-3.696,3.791-6.481,7.584-6.481
		c0.72,0,1.392,0.144,1.392,0.144v2.017c0,0-0.576-0.096-1.104-0.096c-5.615,0-7.873,6.865-7.873,11.761v8.497h3.84v1.872h-9.696
		v-1.872H86.331z"/>
	<path fill="#A9A8A8" d="M118.684,245.3h1.584v-1.056c0-5.137-2.64-6.961-6.384-6.961c-4.225,0-7.057,2.353-7.057,2.353
		l-1.152-1.632c0,0,3.024-2.64,8.257-2.64c5.521,0,8.354,2.976,8.354,8.833v12.817c0,0.72,0.384,1.056,1.056,1.056h2.88v1.872
		h-3.168c-1.968,0-2.783-0.816-2.783-2.64v-0.528c0-1.296,0.191-2.16,0.191-2.16h-0.096c0,0-2.112,5.905-8.497,5.905
		c-3.841,0-8.065-2.16-8.065-7.104C103.802,245.444,114.555,245.3,118.684,245.3z M111.867,258.646c5.521,0,8.4-5.425,8.4-10.177
		v-1.296h-1.537c-1.775,0-12.816-0.432-12.816,6C105.915,255.957,107.979,258.646,111.867,258.646z"/>
	<path fill="#A9A8A8" d="M129.578,258.069h4.32v-19.202c0-0.72-0.385-1.056-1.057-1.056h-3.504v-1.872h3.792
		c1.968,0,2.784,0.816,2.784,2.64v1.584c0,1.104-0.191,1.968-0.191,1.968h0.096c0.815-2.256,4.176-6.769,10.177-6.769
		c6.241,0,7.92,3.696,7.92,9.361v13.345h4.321v1.872H151.9v-14.497c0-4.177-0.528-8.113-5.904-8.113
		c-5.712,0-10.081,4.896-10.081,10.705v10.033h4.319v1.872h-10.656V258.069z"/>
	<path fill="#A9A8A8" d="M172.443,235.363c6.048,0,8.305,5.28,8.305,5.28h0.096c0,0-0.191-0.864-0.191-1.968V228.21h-4.562v-1.872
		h6.577v30.675c0,0.72,0.384,1.056,1.057,1.056h2.879v1.872h-3.168c-1.968,0-2.783-0.816-2.783-2.64v-0.528
		c0-1.104,0.191-1.68,0.191-1.68h-0.096c0,0-2.064,5.425-8.689,5.425c-6.433,0-10.369-5.137-10.369-12.577
		C161.689,240.308,166.154,235.363,172.443,235.363z M172.154,258.549c4.416,0,8.545-3.12,8.545-10.657
		c0-5.329-2.736-10.561-8.354-10.561c-4.705,0-8.545,3.888-8.545,10.609C163.802,254.421,167.258,258.549,172.154,258.549z"/>
	<path fill="#A9A8A8" d="M193.898,268.102c2.304,0,3.791-2.064,4.752-4.32l1.632-3.938l-8.737-22.034h-3.266v-1.872h9.266v1.872
		h-3.792l7.153,18.29c0.287,0.72,0.384,1.344,0.384,1.344h0.096c0,0,0.144-0.624,0.433-1.344l7.152-18.29h-3.793v-1.872h9.266v1.872
		h-3.312l-10.849,27.17c-1.152,2.832-3.36,5.041-6.386,5.041c-2.304,0-3.888-1.296-3.888-1.296l0.912-1.776
		C190.922,266.95,192.266,268.102,193.898,268.102z"/>
	<path fill="#A9A8A8" d="M229.369,258.021h4.561v-29.763h-4.561v-1.92h21.986v6.48h-2.018v-4.56h-13.345v14.017h12.864v1.92h-12.864
		v13.825h4.8v1.92h-11.425L229.369,258.021L229.369,258.021z"/>
	<path fill="#A9A8A8" d="M267.338,235.363c6.865,0,12.434,5.424,12.434,12.433c0,7.153-5.567,12.721-12.434,12.721
		c-6.863,0-12.434-5.568-12.434-12.721C254.904,240.788,260.475,235.363,267.338,235.363z M267.338,258.549
		c5.713,0,10.321-4.656,10.321-10.753c0-5.953-4.608-10.465-10.321-10.465c-5.712,0-10.32,4.512-10.32,10.465
		C257.018,253.893,261.626,258.549,267.338,258.549z"/>
	<path fill="#A9A8A8" d="M284.378,258.069h3.84v-19.202c0-0.72-0.384-1.056-1.056-1.056h-3.504v-1.872h3.792
		c1.968,0,2.784,0.816,2.784,2.64v1.68c0,1.104-0.096,1.968-0.096,1.968h0.096c1.199-3.696,3.791-6.481,7.584-6.481
		c0.721,0,1.393,0.144,1.393,0.144v2.017c0,0-0.576-0.096-1.104-0.096c-5.617,0-7.873,6.865-7.873,11.761v8.497h3.841v1.872h-9.697
		V258.069z"/>
	<path fill="#A9A8A8" d="M305.21,237.812h-4.562v-1.872h4.562v-6.673h2.017v6.673h6.289v1.872h-6.289v13.297
		c0,6.337,3.791,7.153,5.713,7.153c0.672,0,1.104-0.096,1.104-0.096v1.873c0,0-0.479,0.096-1.2,0.096
		c-2.495,0-7.632-0.912-7.632-8.881L305.21,237.812L305.21,237.812z"/>
	<path fill="#A9A8A8" d="M320.426,237.812h-4.561v-1.872h6.576v14.497c0,4.176,0.527,8.113,5.903,8.113
		c6.001,0,9.841-5.28,9.841-10.897v-9.841h-4.56v-1.872h6.576v21.122c0,0.72,0.384,1.056,1.056,1.056h2.881v1.824h-3.168
		c-1.969,0-2.785-0.816-2.785-2.64v-1.344c0-1.104,0.098-1.968,0.098-1.968h-0.098c-0.814,2.256-4.031,6.529-9.841,6.529
		c-5.903,0-7.92-3.265-7.92-9.361L320.426,237.812L320.426,237.812z"/>
	<path fill="#A9A8A8" d="M347.929,258.069h4.32v-19.202c0-0.72-0.384-1.056-1.056-1.056h-3.506v-1.872h3.794
		c1.968,0,2.783,0.816,2.783,2.64v1.584c0,1.104-0.191,1.968-0.191,1.968h0.096c0.816-2.256,4.177-6.769,10.177-6.769
		c6.241,0,7.921,3.696,7.921,9.361v13.345h4.32v1.872h-6.336v-14.497c0-4.177-0.528-8.113-5.905-8.113
		c-5.712,0-10.08,4.896-10.08,10.705v10.033h4.32v1.872h-10.657V258.069L347.929,258.069z"/>
	<path fill="#A9A8A8" d="M391.657,235.363c6.527,0,9.793,5.136,9.793,10.945c0,0.528-0.097,1.296-0.097,1.296h-19.25
		c0,6.96,4.704,10.945,10.272,10.945c4.608,0,7.441-3.024,7.441-3.024l1.104,1.68c0,0-3.36,3.312-8.545,3.312
		c-6.769,0-12.385-4.896-12.385-12.529C379.992,239.875,385.513,235.363,391.657,235.363z M399.338,245.732
		c-0.24-5.857-3.744-8.497-7.729-8.497c-4.416,0-8.497,2.88-9.361,8.497H399.338z"/>
	<path fill="#3F403F" d="M56.883,281.067H53.59v-2.85h10.287v2.85h-3.293v13.506c0,1.702,0.333,3.182,0.999,4.255
		c1.073,1.702,3.108,2.664,5.625,2.664c2.479,0,4.551-0.962,5.624-2.738c0.629-1.073,1-2.516,1-4.218v-13.469h-3.293v-2.85h10.25
		v2.85h-3.256v13.543c0,2.479-0.666,4.736-1.812,6.364c-1.777,2.516-4.959,3.811-8.511,3.811c-3.7,0-6.81-1.406-8.585-3.811
		c-1.221-1.665-1.738-3.848-1.738-6.364v-13.543H56.883z"/>
	<path fill="#3F403F" d="M87.297,296.497v1.924c0,1.924,2.479,3.071,5.217,3.071c2.998,0,5.182-1.406,5.182-3.997
		c0-3.034-3.071-4.033-6.291-5.291c-3.441-1.295-6.957-2.775-6.957-7.4c0-4.921,3.959-7.031,8.363-7.031
		c3.922,0,7.918,1.48,7.918,4.329v3.071h-3.441v-1.813c0-1.517-2.331-2.331-4.477-2.331c-2.554,0-4.588,1.184-4.588,3.589
		c0,2.775,2.627,3.7,5.549,4.81c3.849,1.443,7.66,2.923,7.66,7.771c0,4.996-4.07,7.585-8.918,7.585c-4.07,0-8.621-1.813-8.621-5.55
		v-2.738L87.297,296.497L87.297,296.497z"/>
	<path fill="#3F403F" d="M105.277,301.456h3.257v-20.388h-3.257v-2.85h18.91v6.069h-3.22v-3.035h-8.733v8.4h9.252v3.034h-9.252
		v8.622h9.363v-3.145h3.219v6.179h-19.539V301.456z"/>
	<path fill="#3F403F" d="M128.662,301.456h3.256v-20.388h-3.256v-2.85h11.322c1.852,0,3.369,0.074,4.812,0.555
		c2.738,0.925,4.552,3.219,4.552,6.771c0,3.774-2.072,6.476-5.402,7.327v0.074c0,0,0.666,0.37,1.109,1.221l3.7,6.438
		c0.407,0.703,0.888,0.851,1.813,0.851h0.777v2.886h-2.221c-2.221,0-2.738-0.407-3.626-1.961l-4.033-7.142
		c-0.666-1.11-1.147-1.443-2.737-1.443h-3.108v7.66h3.219v2.886h-10.176L128.662,301.456L128.662,301.456z M140.873,290.762
		c2.85,0,4.736-1.85,4.736-4.921c0-2.035-0.814-3.441-2.442-4.107c-0.851-0.333-1.961-0.481-3.219-0.481h-4.33v9.51h5.255V290.762z"
		/>
	<path fill="#3F403F" d="M163.887,301.456h3.256v-20.388h-3.256v-2.85h18.908v6.069h-3.219v-3.035h-8.733v8.4h9.251v3.034h-9.251
		v8.622h9.362v-3.145h3.219v6.179h-19.537V301.456z"/>
	<path fill="#3F403F" d="M186.418,301.456h2.441l6.734-10.324l-6.623-10.064h-2.406v-2.85h9.104v2.85h-2.775l4.33,6.845
		c0.407,0.555,0.666,1.036,0.666,1.036h0.074c0,0,0.223-0.481,0.629-1.036l4.182-6.845h-2.7v-2.85h8.843v2.85h-2.441l-6.771,10.397
		l6.661,9.991h2.479v2.886h-9.102v-2.886h2.737l-4.365-6.809c-0.407-0.592-0.666-1.073-0.666-1.073h-0.074
		c-0.037,0-0.223,0.481-0.592,1.073l-4.219,6.809h2.738v2.886h-8.881v-2.886H186.418z"/>
	<path fill="#3F403F" d="M212.021,301.456h3.258v-20.388h-3.258v-2.85h12.174c1.593,0,3.184,0.111,4.479,0.703
		c2.701,1.147,4.439,3.922,4.439,7.401c0,3.663-1.924,6.623-4.922,7.659c-1.221,0.444-2.479,0.555-3.922,0.555h-5.291v6.919h3.293
		v2.886h-10.25V301.456z M223.826,291.502c1.186,0,2.109-0.185,2.924-0.518c1.665-0.74,2.627-2.405,2.627-4.662
		c0-2.109-0.852-3.664-2.331-4.44c-0.813-0.444-1.925-0.629-3.183-0.629h-4.885v10.25L223.826,291.502L223.826,291.502z"/>
	<path fill="#3F403F" d="M236.184,301.456h3.258v-20.388h-3.258v-2.85h18.908v6.069h-3.219v-3.035h-8.732v8.4h9.25v3.034h-9.25
		v8.622h9.361v-3.145h3.219v6.179h-19.537V301.456z"/>
	<path fill="#3F403F" d="M259.566,301.456h3.258v-20.388h-3.258v-2.85h11.324c1.85,0,3.366,0.074,4.811,0.555
		c2.736,0.925,4.551,3.219,4.551,6.771c0,3.774-2.072,6.476-5.402,7.327v0.074c0,0,0.666,0.37,1.11,1.221l3.7,6.438
		c0.406,0.703,0.888,0.851,1.812,0.851h0.776v2.886h-2.22c-2.221,0-2.738-0.407-3.627-1.961l-4.033-7.142
		c-0.666-1.11-1.146-1.443-2.738-1.443h-3.107v7.66h3.22v2.886h-10.177V301.456z M271.777,290.762c2.851,0,4.736-1.85,4.736-4.921
		c0-2.035-0.812-3.441-2.441-4.107c-0.852-0.333-1.961-0.481-3.219-0.481h-4.33v9.51h5.254V290.762z"/>
	<path fill="#3F403F" d="M285.355,301.456h3.258v-20.388h-3.258v-2.85h10.25v2.85h-3.293v20.388h3.293v2.886h-10.25V301.456z"/>
	<path fill="#3F403F" d="M299.49,301.456h3.257v-20.388h-3.257v-2.85h18.908v6.069h-3.219v-3.035h-8.732v8.4h9.25v3.034h-9.25v8.622
		h9.361v-3.145h3.219v6.179H299.49V301.456z"/>
	<path fill="#3F403F" d="M322.874,301.456h3.257v-20.388h-3.257v-2.85h6.92l12.84,18.724c0.443,0.74,0.889,1.887,0.889,1.887h0.11
		c0,0-0.186-1.295-0.186-2.109v-15.652h-3.33v-2.85h10.324v2.85h-3.294v23.274h-3.626l-12.841-18.723
		c-0.479-0.74-0.888-1.887-0.888-1.887h-0.111c0,0,0.187,1.295,0.148,2.109v15.615h3.367v2.886h-10.324L322.874,301.456
		L322.874,301.456z"/>
	<path fill="#3F403F" d="M366.905,277.774c3.146,0,9.954,1.147,9.954,5.18v3.183h-3.441v-2.035c0-2.294-3.959-3.146-6.364-3.146
		c-5.588,0-9.694,4.107-9.694,10.028c0,6.179,4.219,10.583,9.917,10.583c1.851,0,6.513-0.666,6.513-3.071v-2.035h3.441v3.182
		c0,3.848-6.551,5.143-10.177,5.143c-7.845,0-13.506-6.031-13.506-13.654C353.548,283.472,359.356,277.774,366.905,277.774z"/>
	<path fill="#3F403F" d="M381.223,301.456h3.258v-20.388h-3.258v-2.85h18.908v6.069h-3.219v-3.035h-8.732v8.4h9.25v3.034h-9.25
		v8.622h9.361v-3.145h3.219v6.179h-19.537V301.456z"/>
</g>
</svg>
